mtllib shark2f.mtl
o Backfin
usemtl Material.001
v -4.155623756219029e-8 0.31316309668334835 0.184994754544485
v 4.155623756219029e-8 0.5763126599520911 0.615345378682564
v -4.155624111490397e-8 -0.1816912513036798 -0.33370370256239856
v 4.155623400947661e-8 -0.4230655618332805 0.5976789322913528
v -3.552713678800501e-15 -0.17141978990071347 0.11144506230337647
vt 0.8671875 0.1875
vt 0.96875 0.25
vt 0.75 0.0703125
vt 0.96875 0.0234375
vt 0.8515625 0.078125
vn 1 0 0
vn 1 0 0
vn 1 0 0
vn 1 0 0
vn 1 0 0
f 1/1/1 2/2/2 4/4/4
f 4/4/4 5/5/5 1/1/1
f 1/1/1 5/5/5 3/3/3
o body
usemtl Material.001
v 0.2105521410703659 -0.9691863624931258 0.8622044249197033
v 0.21198324859142303 -0.9691862489829004 1.7070332930933962
v 0.2782451808452606 -0.006993922169001403 0.7173358128984642
v 0.31156110763549805 -0.0069937829752984015 1.7533205278406108
v 0 3.1002669932273976 1.2071736963048527
v 0 2.9243789230355217 1.3185447379919875
v 0 2.9243789230355217 1.3185447379919875
v 0 -3.373030535272393 1.0847294058387476
v 0.3412459194660187 1.3370823795450177 0.7027246841683868
v 0.40847572684288025 1.2771668392043287 1.6667203678424496
v 0 3.2604985690852475 0.9396685369750704
v 0.2937859296798706 2.432963771903133 0.8622836592315348
v 0.2937859296798706 2.432963771903133 0.8622836592315348
v 0.27000683546066284 2.432963856654062 1.493064113025814
v 0.27000683546066284 2.432963856654062 1.493064113025814
v 0.24850881099700928 2.8719456145442193 0.9530173491947909
v 0.21987169981002808 2.859748410501045 1.3525734378307663
v 0.21987169981002808 2.859748410501045 1.3525734378307663
v 0 2.7613153105524684 0.83907901714632
v 0 2.4329637587685324 0.764526038398494
v 0 2.4329637587685324 0.764526038398494
v 0.21987169981002808 2.88457039942308 1.2699449851446183
v 0.21987169981002808 2.88457039942308 1.2699449851446183
v 0.21987169981002808 2.88457039942308 1.2699449851446183
v 0.4114667773246765 2.4329638209794506 1.2275466991252801
v 0.4114667773246765 2.4329638209794506 1.2275466991252801
v 0.4114667773246765 2.4329638209794506 1.2275466991252801
v 0.4114667773246765 2.4329638209794506 1.2275466991252801
v 0 1.3798792189855151 0.5798142219360357
v 0.12085823714733124 3.1009517296385325 1.193478685320053
v 0 -0.006993942946273542 0.5626956539719306
v 0.18534959852695465 -2.0462452440600565 1.2734891237621788
v 0.39857786893844604 -0.9691862972992211 1.3474267254356067
v 0.623203694820404 1.277166794280309 1.3323618691678198
v 0 -0.9691863753735313 0.7663387153706731
v 0 -2.0462452852478425 0.9669384978409066
v 0.5082929730415344 -0.006993834632912796 1.3688455281344047
v 0 2.8962140651615225 1.389225801692619
v 0 2.8962140651615225 1.389225801692619
v 0 1.5277784567109183 1.0785194177668278
v 0 1.3283518854279002 1.8712674062607224
v 0 2.4329638706619314 1.597321263617012
v 0 2.4329638706619314 1.597321263617012
v 0 -0.006993759808364197 1.9257463575299143
v 0 -0.9691862302651835 1.8463446850449081
v 0 -2.0462452122565016 1.5101952112665127
v 0 2.3640472579890215 1.2683961331840006
v 0 2.5524315759591167 1.2546203773790705
v -0.2105521410703659 -0.9691863624931258 0.8622044249197033
v -0.21198324859142303 -0.9691862489829004 1.7070332930933962
v -0.2782451808452606 -0.006993922169001403 0.7173358128984642
v -0.31156110763549805 -0.0069937829752984015 1.7533205278406108
v -0.3412459194660187 1.3370823795450177 0.7027246841683868
v -0.40847572684288025 1.2771668392043287 1.6667203678424496
v -0.2937859296798706 2.432963771903133 0.8622836592315348
v -0.2937859296798706 2.432963771903133 0.8622836592315348
v -0.27000683546066284 2.432963856654062 1.493064113025814
v -0.27000683546066284 2.432963856654062 1.493064113025814
v -0.24850881099700928 2.8719456145442193 0.9530173491947909
v -0.21987169981002808 2.859748410501045 1.3525734378307663
v -0.21987169981002808 2.859748410501045 1.3525734378307663
v -0.21987169981002808 2.88457039942308 1.2699449851446183
v -0.21987169981002808 2.88457039942308 1.2699449851446183
v -0.21987169981002808 2.88457039942308 1.2699449851446183
v -0.4114667773246765 2.4329638209794506 1.2275466991252801
v -0.4114667773246765 2.4329638209794506 1.2275466991252801
v -0.4114667773246765 2.4329638209794506 1.2275466991252801
v -0.4114667773246765 2.4329638209794506 1.2275466991252801
v -0.12085823714733124 3.1009517296385325 1.193478685320053
v -0.18534959852695465 -2.0462452440600565 1.2734891237621788
v -0.39857786893844604 -0.9691862972992211 1.3474267254356067
v -0.623203694820404 1.277166794280309 1.3323618691678198
v -0.5082929730415344 -0.006993834632912796 1.3688455281344047
vt 0.078125 0.4375
vt 0.2421875 0.4375
vt 0.078125 0.3671875
vt 0.2421875 0.3671875
vt 0.50390625 0.80859375
vt 0.3203125 0.6171875
vt 0.50390625 0.69921875
vt 0.1640625 0.6328125
vt 0.078125 0.265625
vt 0.2421875 0.265625
vt 0.50390625 0.96875
vt 0.078125 0.015625
vt 0.9375 0.890625
vt 0.16796875 0.9609375
vt 0.2421875 0.015625
vt 0.7578125 0.87109375
vt 0.20703125 0.69921875
vt 0.3203125 0.5234375
vt 0.7734375 0.97265625
vt 0.015625 0.015625
vt 0.9375 0.97265625
vt 0.3203125 0.5234375
vt 0.5703125 0.671875
vt 0.6796875 0.703125
vt 0.03125 0.9609375
vt 0.1640625 0.015625
vt 0.453125 0.515625
vt 0.9375 0.6171875
vt 0.015625 0.265625
vt 0.5859375 0.8125
vt 0.015625 0.3671875
vt 0.1640625 0.5234375
vt 0.1640625 0.4375
vt 0.1640625 0.265625
vt 0.015625 0.4375
vt 0.078125 0.5234375
vt 0.1640625 0.3671875
vt 0.3203125 0.6171875
vt 0.32421875 0.69140625
vt 0.62890625 0.6171875
vt 0.3046875 0.265625
vt 0.3046875 0.015625
vt 0.32421875 0.9609375
vt 0.3046875 0.3671875
vt 0.3046875 0.4375
vt 0.23828125 0.5234375
vt 0.46875 0.6171875
vt 0.46875 0.6171875
vt 0.078125 0.4375
vt 0.2421875 0.4375
vt 0.078125 0.3671875
vt 0.2421875 0.3671875
vt 0.078125 0.265625
vt 0.2421875 0.265625
vt 0.078125 0.015625
vt 0.9375 0.890625
vt 0.16796875 0.9609375
vt 0.2421875 0.015625
vt 0.7578125 0.87109375
vt 0.20703125 0.69921875
vt 0.3203125 0.5234375
vt 0.3203125 0.5234375
vt 0.5703125 0.671875
vt 0.6796875 0.703125
vt 0.03125 0.9609375
vt 0.1640625 0.015625
vt 0.453125 0.515625
vt 0.9375 0.6171875
vt 0.5859375 0.8125
vt 0.1640625 0.5234375
vt 0.1640625 0.4375
vt 0.1640625 0.265625
vt 0.1640625 0.3671875
vn 0.7264115545331802 -0.16720272621901708 -0.6666104573029268
vn 0.7092880367003774 -0.17209696568379693 0.6835884108117647
vn 0.723904268720938 -0.09660065081087207 -0.6831038896028334
vn 0.7061903908647705 -0.05359916489483498 0.7059902700270302
vn 0 0.6829060328076052 0.730506228826954
vn 0 0.21509846195069635 0.9765923671964906
vn 0 0.21509846195069635 0.9765923671964906
vn 0 -0.9927011827357971 -0.12060000744174676
vn 0.7048819267919917 0.0510985889852647 -0.7074817336763715
vn 0.6876069751615642 0.09140101174963014 0.7203072280355847
vn 0 0.9078949156540764 -0.41919783173279557
vn 0.693875628379923 0.17789362976488932 -0.6977753713262166
vn 0.693875628379923 0.17789362976488932 -0.6977753713262166
vn 0.6272893712486174 0.2647955817289905 0.7323874279473398
vn 0.6272893712486174 0.2647955817289905 0.7323874279473398
vn 0.780288985947082 0.3598948080687324 -0.5114927424068153
vn 0.5089718628157671 0.8480529321894392 -0.14749192203894457
vn 0.5089718628157671 0.8480529321894392 -0.14749192203894457
vn 0 0.21820073526762124 -0.9759039087577577
vn 0 0.19650061593711413 -0.9805037011334199
vn 0 0.19650061593711413 -0.9805037011334199
vn 0.6375640307991907 0.3042828815192565 0.7077598707509679
vn 0.6375640307991907 0.3042828815192565 0.7077598707509679
vn 0.6375640307991907 0.3042828815192565 0.7077598707509679
vn 0.9635211474118851 0.25050544705708255 0.09420201422907895
vn 0.9635211474118851 0.25050544705708255 0.09420201422907895
vn 0.9635211474118851 0.25050544705708255 0.09420201422907895
vn 0.9635211474118851 0.25050544705708255 0.09420201422907895
vn 0 0.08479969526656463 -0.9963980187067303
vn 0.5579947653787514 0.6784935239315959 0.4777953325355923
vn 0 -0.09889987114596262 -0.9950973899510096
vn 0.9783339465210156 -0.1954067583995324 0.06840239656913821
vn 0.9827903260402113 -0.17309825521966615 0.06449937272317022
vn 0.9957738479795438 0.04799874227938342 0.07829792091498824
vn 0 -0.18940014465295138 -0.9818999873741933
vn 0 -0.23209829235949453 -0.9726923371158049
vn 0.9931705384829882 -0.09219725271563164 0.07149788864785539
vn 0 0.9999630208912041 -0.008599816866502099
vn 0 0.9999630208912041 -0.008599816866502099
vn 0 0.9827372253422322 0.18500688075488095
vn 0 0.13249791546460543 0.9911832839578836
vn 0 0.2972956359314221 0.9547854758301109
vn 0 0.2972956359314221 0.9547854758301109
vn 0 -0.029398918286383892 0.9995677583853885
vn 0 -0.189996893526107 0.981784691493216
vn 0 -0.35111235503718285 0.9363333349508833
vn 0 0.22241190596728738 -0.9749527906950155
vn 0 -0.13249764911613107 0.9911833195623796
vn -0.7264115545331802 -0.16720272621901708 -0.6666104573029268
vn -0.7092880367003774 -0.17209696568379693 0.6835884108117647
vn -0.723904268720938 -0.09660065081087207 -0.6831038896028334
vn -0.7061903908647705 -0.05359916489483498 0.7059902700270302
vn -0.7048819267919917 0.0510985889852647 -0.7074817336763715
vn -0.6876069751615642 0.09140101174963014 0.7203072280355847
vn -0.693875628379923 0.17789362976488932 -0.6977753713262166
vn -0.693875628379923 0.17789362976488932 -0.6977753713262166
vn -0.6272893712486174 0.2647955817289905 0.7323874279473398
vn -0.6272893712486174 0.2647955817289905 0.7323874279473398
vn -0.780288985947082 0.3598948080687324 -0.5114927424068153
vn -0.5089718628157671 0.8480529321894392 -0.14749192203894457
vn -0.5089718628157671 0.8480529321894392 -0.14749192203894457
vn -0.6375640307991907 0.3042828815192565 0.7077598707509679
vn -0.6375640307991907 0.3042828815192565 0.7077598707509679
vn -0.6375640307991907 0.3042828815192565 0.7077598707509679
vn -0.9635211474118851 0.25050544705708255 0.09420201422907895
vn -0.9635211474118851 0.25050544705708255 0.09420201422907895
vn -0.9635211474118851 0.25050544705708255 0.09420201422907895
vn -0.9635211474118851 0.25050544705708255 0.09420201422907895
vn -0.5579947653787514 0.6784935239315959 0.4777953325355923
vn -0.9783339465210156 -0.1954067583995324 0.06840239656913821
vn -0.9827903260402113 -0.17309825521966615 0.06449937272317022
vn -0.9957738479795438 0.04799874227938342 0.07829792091498824
vn -0.9931705384829882 -0.09219725271563164 0.07149788864785539
f 7/7/7 38/38/38 42/42/42
f 7/7/7 42/42/42 9/9/9
f 6/6/6 38/38/38 37/37/37
f 6/6/6 37/37/37 41/41/41
f 7/7/7 9/9/9 49/49/49
f 7/7/7 49/49/49 50/50/50
f 8/8/8 6/6/6 40/40/40
f 8/8/8 40/40/40 36/36/36
f 41/41/41 37/37/37 13/13/13
f 9/9/9 42/42/42 39/39/39
f 9/9/9 39/39/39 15/15/15
f 32/32/32 27/27/27 11/11/11
f 32/32/32 11/11/11 53/53/53
f 51/51/51 7/7/7 50/50/50
f 9/9/9 15/15/15 46/46/46
f 9/9/9 46/46/46 49/49/49
f 15/15/15 39/39/39 31/31/31
f 15/15/15 31/31/31 20/20/20
f 19/19/19 30/30/30 22/22/22
f 23/23/23 32/32/32 52/52/52
f 23/23/23 52/52/52 43/43/43
f 19/19/19 22/22/22 44/44/44
f 19/19/19 44/44/44 48/48/48
f 14/14/14 8/8/8 36/36/36
f 14/14/14 36/36/36 34/34/34
f 17/17/17 14/14/14 34/34/34
f 17/17/17 34/34/34 25/25/25
f 29/29/29 33/33/33 21/21/21
f 28/28/28 35/35/35 10/10/10
f 28/28/28 10/10/10 12/12/12
f 29/29/29 21/21/21 35/35/35
f 16/16/16 21/21/21 24/24/24
f 21/21/21 18/18/18 26/26/26
f 21/21/21 26/26/26 24/24/24
f 35/35/35 16/16/16 10/10/10
f 35/35/35 21/21/21 16/16/16
f 13/13/13 37/37/37 51/51/51
f 31/31/31 39/39/39 14/14/14
f 31/31/31 14/14/14 17/17/17
f 42/42/42 38/38/38 6/6/6
f 42/42/42 6/6/6 8/8/8
f 37/37/37 38/38/38 7/7/7
f 37/37/37 7/7/7 51/51/51
f 6/6/6 41/41/41 40/40/40
f 15/15/15 20/20/20 47/47/47
f 15/15/15 47/47/47 46/46/46
f 39/39/39 42/42/42 8/8/8
f 39/39/39 8/8/8 14/14/14
f 21/21/21 33/33/33 18/18/18
f 52/52/52 32/32/32 45/45/45
f 53/53/53 45/45/45 32/32/32
f 55/55/55 57/57/57 78/78/78
f 55/55/55 78/78/78 76/76/76
f 54/54/54 41/41/41 75/75/75
f 54/54/54 75/75/75 76/76/76
f 55/55/55 50/50/50 49/49/49
f 55/55/55 49/49/49 57/57/57
f 56/56/56 36/36/36 40/40/40
f 56/56/56 40/40/40 54/54/54
f 41/41/41 13/13/13 75/75/75
f 57/57/57 59/59/59 77/77/77
f 57/57/57 77/77/77 78/78/78
f 72/72/72 53/53/53 11/11/11
f 72/72/72 11/11/11 67/67/67
f 51/51/51 50/50/50 55/55/55
f 57/57/57 49/49/49 46/46/46
f 57/57/57 46/46/46 59/59/59
f 59/59/59 63/63/63 71/71/71
f 59/59/59 71/71/71 77/77/77
f 62/62/62 65/65/65 70/70/70
f 66/66/66 43/43/43 52/52/52
f 66/66/66 52/52/52 72/72/72
f 62/62/62 48/48/48 44/44/44
f 62/62/62 44/44/44 65/65/65
f 58/58/58 34/34/34 36/36/36
f 58/58/58 36/36/36 56/56/56
f 60/60/60 25/25/25 34/34/34
f 60/60/60 34/34/34 58/58/58
f 69/69/69 64/64/64 73/73/73
f 68/68/68 12/12/12 10/10/10
f 68/68/68 10/10/10 74/74/74
f 69/69/69 74/74/74 64/64/64
f 16/16/16 24/24/24 64/64/64
f 64/64/64 24/24/24 26/26/26
f 64/64/64 26/26/26 61/61/61
f 74/74/74 10/10/10 16/16/16
f 74/74/74 16/16/16 64/64/64
f 13/13/13 51/51/51 75/75/75
f 71/71/71 60/60/60 58/58/58
f 71/71/71 58/58/58 77/77/77
f 78/78/78 56/56/56 54/54/54
f 78/78/78 54/54/54 76/76/76
f 75/75/75 51/51/51 55/55/55
f 75/75/75 55/55/55 76/76/76
f 54/54/54 40/40/40 41/41/41
f 59/59/59 46/46/46 47/47/47
f 59/59/59 47/47/47 63/63/63
f 77/77/77 58/58/58 56/56/56
f 77/77/77 56/56/56 78/78/78
f 64/64/64 61/61/61 73/73/73
f 52/52/52 45/45/45 72/72/72
f 53/53/53 72/72/72 45/45/45
o frontfins
usemtl Material.001
v 0.8112635612487793 1.137383467374 1.8852886516259209
v 0.43043529987335205 1.2760917877317948 1.503315225659192
v 1.2377099990844727 0.31759796876914 2.313017591403896
v 0.5087565779685974 0.5517827333789367 1.5818721095780683
v 0.7982867956161499 0.5842474002099952 1.872272917520894
v 1.0744129419326782 0.8256455063354678 2.1492294209213822
v -0.8112635612487793 1.137383467374 1.8852886516259209
v -0.43043529987335205 1.2760917877317948 1.503315225659192
v -1.2377099990844727 0.31759796876914 2.313017591403896
v -0.5087565779685974 0.5517827333789367 1.5818721095780683
v -0.7982867956161499 0.5842474002099952 1.872272917520894
v -1.0744129419326782 0.8256455063354678 2.1492294209213822
vt 0.53125 0.140625
vt 0.53125 0.0390625
vt 0.6640625 0.2890625
vt 0.6640625 0.0859375
vt 0.6328125 0.1640625
vt 0.578125 0.2265625
vt 0.53125 0.140625
vt 0.53125 0.0390625
vt 0.6640625 0.2890625
vt 0.6640625 0.0859375
vt 0.6328125 0.1640625
vt 0.578125 0.2265625
vn 0.7082059767151722 -9.485812924461392e-8 -0.7060058742991449
vn 0.7082059767151722 -9.485812924461392e-8 -0.7060058742991449
vn 0.7082059767151722 -9.485812924461392e-8 -0.7060058742991449
vn 0.7082059767151722 -9.485812924461392e-8 -0.7060058742991449
vn 0.7082059767151722 -9.485812924461392e-8 -0.7060058742991449
vn 0.7082059767151722 -9.485812924461392e-8 -0.7060058742991449
vn -0.7082059767151722 -9.485812924461392e-8 -0.7060058742991449
vn -0.7082059767151722 -9.485812924461392e-8 -0.7060058742991449
vn -0.7082059767151722 -9.485812924461392e-8 -0.7060058742991449
vn -0.7082059767151722 -9.485812924461392e-8 -0.7060058742991449
vn -0.7082059767151722 -9.485812924461392e-8 -0.7060058742991449
vn -0.7082059767151722 -9.485812924461392e-8 -0.7060058742991449
f 79/79/79 83/83/83 82/82/82
f 79/79/79 82/82/82 80/80/80
f 83/83/83 84/84/84 81/81/81
f 84/84/84 83/83/83 79/79/79
f 85/85/85 86/86/86 88/88/88
f 85/85/85 88/88/88 89/89/89
f 89/89/89 87/87/87 90/90/90
f 90/90/90 85/85/85 89/89/89
o lowerteeth
usemtl Material.001
v -0.1783255785703659 2.759804520537679 1.35057476569022
v -0.15725286304950714 2.800908842771833 1.3505747527169094
v -0.07329949736595154 2.863577177847525 1.3739360801502247
v -0.11082958430051804 2.836649703068695 1.3739361061199138
v -0.08791740238666534 2.8395190648475346 1.3277450777281747
v -0.16115374863147736 2.7737210086634705 1.304383750715365
v -0.25601819157600403 2.6765139284472896 1.3210661226134113
v -0.23912875354290009 2.719506287663023 1.3210661093864262
v -0.24010857939720154 2.693033470969455 1.2748751054261676
v -0.28951579332351685 2.5832593480390003 1.308517012524085
v -0.276733934879303 2.6276466945484853 1.3085169953843803
v -0.2950686812400818 2.601305722277034 1.254363429356917
v 0.1783256083726883 2.759804520537672 1.3505747135361488
v 0.15725289285182953 2.8009088427718267 1.3505747080134198
v 0.07329952716827393 2.863577177847522 1.3739360577984798
v 0.11082961410284042 2.83664970306869 1.3739360688670057
v 0.08791743218898773 2.8395190648475315 1.3277450553764298
v 0.16115377843379974 2.773721008663464 1.3043837022865847
v 0.25601819157600403 2.67651392844728 1.3210660481075953
v 0.23912878334522247 2.7195062876630134 1.3210660348806103
v 0.24010857939720154 2.693033470969445 1.274875032782997
v 0.28951579332351685 2.5832593480389887 1.3085169268423966
v 0.276733934879303 2.6276466945484738 1.308516909702692
v 0.2950686812400818 2.601305722277022 1.2543633401827687
vt 0.09375 0.69140625
vt 0.0546875 0.69140625
vt 0.0546875 0.69140625
vt 0.09375 0.69140625
vt 0.07421875 0.65234375
vt 0.07421875 0.65234375
vt 0.09375 0.69140625
vt 0.0546875 0.69140625
vt 0.07421875 0.65234375
vt 0.09375 0.69140625
vt 0.0546875 0.69140625
vt 0.07421875 0.65234375
vt 0.09375 0.69140625
vt 0.0546875 0.69140625
vt 0.0546875 0.69140625
vt 0.09375 0.69140625
vt 0.07421875 0.65234375
vt 0.07421875 0.65234375
vt 0.09375 0.69140625
vt 0.0546875 0.69140625
vt 0.07421875 0.65234375
vt 0.09375 0.69140625
vt 0.0546875 0.69140625
vt 0.07421875 0.65234375
vn -0.8736877798141207 0.4478936415393947 -0.18989720712020203
vn -0.8736877798141207 0.4478936415393947 -0.18989720712020203
vn -0.5670057731728647 0.7903078886705981 -0.23220227021642884
vn -0.5670057731728647 0.7903078886705981 -0.23220227021642884
vn -0.5670057731728647 0.7903078886705981 -0.23220227021642884
vn -0.8736877798141207 0.4478936415393947 -0.18989720712020203
vn -0.9144301051139286 0.35921176810381333 -0.18650600128966738
vn -0.9144301051139286 0.35921176810381333 -0.18650600128966738
vn -0.9144301051139286 0.35921176810381333 -0.18650600128966738
vn -0.9439277235882382 0.27180800498715957 0.1874056057497399
vn -0.9439277235882382 0.27180800498715957 0.1874056057497399
vn -0.9439277235882382 0.27180800498715957 0.1874056057497399
vn 0.8736877353133479 0.4478936187261597 -0.18989746566876228
vn 0.8736877353133479 0.4478936187261597 -0.18989746566876228
vn 0.567005668746178 0.7903079092749734 -0.23220245508417833
vn 0.567005668746178 0.7903079092749734 -0.23220245508417833
vn 0.567005668746178 0.7903079092749734 -0.23220245508417833
vn 0.8736877353133479 0.4478936187261597 -0.18989746566876228
vn 0.9144300593697258 0.3592117501342727 -0.1865062601805968
vn 0.9144300593697258 0.3592117501342727 -0.1865062601805968
vn 0.9144300593697258 0.3592117501342727 -0.1865062601805968
vn 0.9439277736717467 0.271808019408881 0.18740533257119668
vn 0.9439277736717467 0.271808019408881 0.18740533257119668
vn 0.9439277736717467 0.271808019408881 0.18740533257119668
f 98/98/98 99/99/99 97/97/97
f 101/101/101 102/102/102 100/100/100
f 93/93/93 95/95/95 94/94/94
f 92/92/92 96/96/96 91/91/91
f 110/110/110 109/109/109 111/111/111
f 113/113/113 112/112/112 114/114/114
f 105/105/105 106/106/106 107/107/107
f 104/104/104 103/103/103 108/108/108
o rear_sym_fins
usemtl Material.001
v 0.38149312138557434 -1.3293969096237337 2.0410374905047184
v 0.38149312138557434 -1.3293969096237337 2.0410374905047184
v 0.14399345219135284 -0.8753276425737012 1.6633866111909934
v 0.40771588683128357 -1.5624516950972869 2.063050533369845
v 0.14399345219135284 -1.6305045266464224 1.6633867126556823
v 0.14399345219135284 -1.6305045266464224 1.6633867126556823
v -0.38149312138557434 -1.3293969096237337 2.0410374905047184
v -0.38149312138557434 -1.3293969096237337 2.0410374905047184
v -0.14399345219135284 -0.8753276425737012 1.6633866111909934
v -0.40771588683128357 -1.5624516950972869 2.063050533369845
v -0.14399345219135284 -1.6305045266464224 1.6633867126556823
v -0.14399345219135284 -1.6305045266464224 1.6633867126556823
vt 0.6328125 0.390625
vt 0.6328125 0.390625
vt 0.53125 0.4921875
vt 0.6328125 0.3359375
vt 0.53125 0.3203125
vt 0.53125 0.3203125
vt 0.6328125 0.390625
vt 0.6328125 0.390625
vt 0.53125 0.4921875
vt 0.6328125 0.3359375
vt 0.53125 0.3203125
vt 0.53125 0.3203125
vn -0.8464949254635639 7.153221421950424e-8 0.5323967892131116
vn -0.8307039737854671 -0.04100011768507311 0.5552025740996199
vn -0.8464949254635639 7.153221421950424e-8 0.5323967892131116
vn -0.8307039737854671 -0.04100011768507311 0.5552025740996199
vn -0.8464949254635639 7.153221421950424e-8 0.5323967892131116
vn -0.8307039737854671 -0.04100011768507311 0.5552025740996199
vn 0.8307039737854671 -0.04100011768507311 0.5552025740996199
vn 0.8464949254635639 7.153221421950424e-8 0.5323967892131116
vn 0.8464949254635639 7.153221421950424e-8 0.5323967892131116
vn 0.8307039737854671 -0.04100011768507311 0.5552025740996199
vn 0.8307039737854671 -0.04100011768507311 0.5552025740996199
vn 0.8464949254635639 7.153221421950424e-8 0.5323967892131116
f 115/115/115 117/117/117 119/119/119
f 120/120/120 118/118/118 116/116/116
f 122/122/122 126/126/126 123/123/123
f 125/125/125 121/121/121 124/124/124
o smallrearfinbottom
usemtl Material.001
v -6.79905998168806e-9 -2.0045088424994093 1.508593658440888
v 1.1342088157562102e-8 -2.240513718522889 1.3976415363420678
v 7.320560158063927e-9 -2.3786477183077768 1.5573644707919405
vt 0.671875 0.4296875
vt 0.7109375 0.484375
vt 0.671875 0.515625
vn -1 0 0
vn -1 0 0
vn -1 0 0
f 127/127/127 128/128/128 129/129/129
o smallrearfintop
usemtl Material.001
v -1.1148660661319809e-8 -1.7366024502148496 0.9794548968803787
v 1.114865977314139e-8 -1.9644728500636182 0.7999601648012734
v 1.114865977314139e-8 -2.1651844655994643 0.9440860303394736
vt 0.671875 0.328125
vt 0.7109375 0.390625
vt 0.671875 0.4296875
vn -1 0 0
vn -1 0 0
vn -1 0 0
f 130/130/130 131/131/131 132/132/132
o Tail
usemtl Material.001
v -7.549790126404332e-8 -4.136061040691692 2.0234308915911265
v 7.549790126404332e-8 -4.100563663081706 -0.15405677909506355
v -1.6734070129587053e-8 -2.7952287532328786 1.0847293282059713
v -1.6734070129587053e-8 -3.373030535272393 1.0847294058387476
v 3.875150156318341e-8 -3.461774349482845 0.22426554880869354
v -5.908749756144971e-8 -3.3819048693157345 1.7062019833455015
v -1.6734070129587053e-8 -3.556422607794819 1.0847294304790935
vt 0.6796875 0.1484375
vt 0.6796875 0.6328125
vt 0.984375 0.3671875
vt 0.8515625 0.359375
vt 0.828125 0.5546875
vt 0.8515625 0.2265625
vt 0.8125 0.359375
vn -1 0 0
vn -1 0 0
vn -1 0 0
vn -1 0 0
vn -1 0 0
vn -1 0 0
vn -1 0 0
f 136/136/136 137/137/137 134/134/134
f 136/136/136 134/134/134 139/139/139
f 138/138/138 135/135/135 136/136/136
f 137/137/137 136/136/136 135/135/135
f 139/139/139 133/133/133 138/138/138
f 139/139/139 138/138/138 136/136/136
o upperteeth
usemtl Material.001
v 0.14647531509399414 2.791654853841689 1.2839059588942277
v 0.12540261447429657 2.8327591760758444 1.2839059570967895
v 0.027514755725860596 2.898413465050137 1.3014079269681105
v 0.0650448426604271 2.871485990271304 1.301407926860764
v 0.0421326570212841 2.8743553644624864 1.3475989358549991
v 0.1293034851551056 2.805571354379822 1.3300969701294747
v 0.2231726199388504 2.711350217961811 1.2657449442081252
v 0.20628318190574646 2.754342577177546 1.2657449421570126
v 0.20726299285888672 2.7278697728963177 1.3119359495056926
v 0.28951579332351685 2.6360113646277443 1.2454485074184805
v 0.276733934879303 2.680398711137232 1.2454485089052298
v 0.27317163348197937 2.654057752347961 1.291639513442227
v -0.14647531509399414 2.791654853841689 1.2839059588942277
v -0.12540261447429657 2.8327591760758444 1.2839059570967895
v -0.027514755725860596 2.898413465050137 1.3014079269681105
v -0.0650448426604271 2.871485990271304 1.301407926860764
v -0.0421326570212841 2.8743553644624864 1.3475989358549991
v -0.1293034851551056 2.805571354379822 1.3300969701294747
v -0.2231726199388504 2.711350217961811 1.2657449442081252
v -0.20628318190574646 2.754342577177546 1.2657449421570126
v -0.20726299285888672 2.7278697728963177 1.3119359495056926
v -0.28951579332351685 2.6360113646277443 1.2454485074184805
v -0.276733934879303 2.680398711137232 1.2454485089052298
v -0.27317163348197937 2.654057752347961 1.291639513442227
vt 0.09375 0.69140625
vt 0.0546875 0.69140625
vt 0.0546875 0.69140625
vt 0.09375 0.69140625
vt 0.07421875 0.65234375
vt 0.07421875 0.65234375
vt 0.09375 0.69140625
vt 0.0546875 0.69140625
vt 0.07421875 0.65234375
vt 0.09375 0.69140625
vt 0.0546875 0.69140625
vt 0.07421875 0.65234375
vt 0.09375 0.69140625
vt 0.0546875 0.69140625
vt 0.0546875 0.69140625
vt 0.09375 0.69140625
vt 0.07421875 0.65234375
vt 0.07421875 0.65234375
vt 0.09375 0.69140625
vt 0.0546875 0.69140625
vt 0.07421875 0.65234375
vt 0.09375 0.69140625
vt 0.0546875 0.69140625
vt 0.07421875 0.65234375
vn 0.8736877575637414 0.4478936811615358 0.18989721603754442
vn 0.8736877575637414 0.4478936811615358 0.18989721603754442
vn 0.5670057209595254 0.7903079613696411 0.2322021502805926
vn 0.5670057209595254 0.7903079613696411 0.2322021502805926
vn 0.5670057209595254 0.7903079613696411 0.2322021502805926
vn 0.8736877575637414 0.4478936811615358 0.18989721603754442
vn 0.9144300822418346 0.3592118092365272 0.18650603420858078
vn 0.9144300822418346 0.3592118092365272 0.18650603420858078
vn 0.9144300822418346 0.3592118092365272 0.18650603420858078
vn 0.9361008596402325 0.2696002844358378 0.22590012663328252
vn 0.9361008596402325 0.2696002844358378 0.22590012663328252
vn 0.9361008596402325 0.2696002844358378 0.22590012663328252
vn -0.8736877575637414 0.4478936811615358 0.18989721603754442
vn -0.8736877575637414 0.4478936811615358 0.18989721603754442
vn -0.5670057209595254 0.7903079613696411 0.2322021502805926
vn -0.5670057209595254 0.7903079613696411 0.2322021502805926
vn -0.5670057209595254 0.7903079613696411 0.2322021502805926
vn -0.8736877575637414 0.4478936811615358 0.18989721603754442
vn -0.9144300822418346 0.3592118092365272 0.18650603420858078
vn -0.9144300822418346 0.3592118092365272 0.18650603420858078
vn -0.9144300822418346 0.3592118092365272 0.18650603420858078
vn -0.9361008596402325 0.2696002844358378 0.22590012663328252
vn -0.9361008596402325 0.2696002844358378 0.22590012663328252
vn -0.9361008596402325 0.2696002844358378 0.22590012663328252
f 147/147/147 148/148/148 146/146/146
f 150/150/150 151/151/151 149/149/149
f 142/142/142 144/144/144 143/143/143
f 141/141/141 145/145/145 140/140/140
f 159/159/159 158/158/158 160/160/160
f 162/162/162 161/161/161 163/163/163
f 154/154/154 155/155/155 156/156/156
f 153/153/153 152/152/152 157/157/157
